<svg width="520" height="160" viewBox="0 0 520 160" fill="none" xmlns="http://www.w3.org/2000/svg">
  <defs>
    <linearGradient id="g1" x1="0" y1="0" x2="1" y2="1">
      <stop offset="0" stop-color="#2EA7FF"/>
      <stop offset="1" stop-color="#0B46A8"/>
    </linearGradient>
    <linearGradient id="g2" x1="0" y1="0" x2="1" y2="1">
      <stop offset="0" stop-color="#FFB300"/>
      <stop offset="1" stop-color="#FF5B00"/>
    </linearGradient>
  </defs>

  <g transform="translate(10,18)">
    <path d="M66 8C66 8 56 28 56 52C56 76 66 96 66 96C66 96 76 76 76 52C76 28 66 8 66 8Z" fill="url(#g1)"/>
    <circle cx="66" cy="40" r="10" fill="#EAF4FF"/>
    <path d="M53 86L79 86L74 104L58 104L53 86Z" fill="#0B46A8"/>
    <path d="M62 104L70 104L66 124L62 104Z" fill="#FF7A00"/>

    <path d="M52 64C35 58 19 56 4 58C18 70 31 76 48 76L52 64Z" fill="url(#g1)"/>
    <path d="M80 64C97 58 113 56 128 58C114 70 101 76 84 76L80 64Z" fill="url(#g2)"/>
  </g>

  <text x="160" y="110" font-size="72" font-family="Segoe UI, Arial, sans-serif" font-weight="800" fill="url(#g1)">Dev</text>
  <text x="295" y="110" font-size="72" font-family="Segoe UI, Arial, sans-serif" font-weight="800" fill="url(#g2)">Fly</text>
</svg>
